<svg width="157" height="157" viewBox="0 0 157 157" fill="none" xmlns="http://www.w3.org/2000/svg">
<path d="M107.374 83.084L95.8531 87.739L81.9932 93.338C81.9882 93.34 81.9822 93.342 81.9762 93.345L81.9032 93.374C81.8652 93.389 81.8282 93.399 81.7912 93.413C81.6812 93.454 81.5701 93.494 81.4581 93.528C81.3951 93.548 81.3321 93.562 81.2671 93.579C81.1711 93.604 81.0761 93.628 80.9791 93.647C80.9041 93.662 80.8291 93.672 80.7541 93.684C80.6671 93.697 80.5801 93.71 80.4921 93.719C80.4111 93.727 80.3311 93.731 80.2501 93.735C80.1671 93.739 80.0831 93.743 79.9991 93.743C79.8581 93.743 79.7151 93.735 79.5741 93.724C79.5511 93.722 79.5301 93.721 79.5091 93.719C79.3851 93.707 79.2621 93.688 79.1391 93.667C79.0991 93.661 79.0592 93.655 79.0192 93.647C79.0022 93.644 78.9842 93.638 78.9672 93.635C78.8742 93.616 78.7811 93.593 78.6891 93.568C78.6391 93.556 78.5902 93.543 78.5412 93.528C78.4282 93.495 78.3182 93.454 78.2092 93.413C78.1712 93.399 78.1331 93.389 78.0961 93.374L39.7581 77.885C37.1631 76.836 35.7571 73.906 36.7581 71.292C37.7771 68.629 40.7782 67.33 43.4111 68.394L77.4852 82.161L78.0561 82.392C79.3031 82.895 80.6962 82.895 81.9422 82.392L112.746 69.946L119.165 67.353C119.929 67.05 119.854 66.158 119.212 65.814L83.6931 49.798C81.3441 48.739 78.6532 48.739 76.3042 49.798L39.1591 66.548C37.3201 67.202 35.8092 68.61 35.0462 70.499C33.6072 74.061 35.3341 78.13 38.8961 79.57L77.2201 95.054C77.6721 95.249 78.1471 95.398 78.6381 95.495C78.6691 95.501 78.6991 95.506 78.7291 95.512C78.8971 95.543 79.0671 95.567 79.2371 95.586C79.2881 95.591 79.3371 95.598 79.3871 95.602C79.5891 95.619 79.7912 95.631 79.9972 95.631H79.9982C80.8932 95.631 81.7721 95.46 82.6071 95.123L117.716 80.943C119.418 80.255 119.712 79.641 119.712 78.105L107.374 83.084ZM39.7442 66.368C39.7302 66.371 39.7171 66.376 39.7031 66.379C39.7161 66.376 39.7292 66.372 39.7442 66.368ZM40.9261 66.165C40.8861 66.168 40.8472 66.174 40.8082 66.178C40.8482 66.174 40.8861 66.169 40.9261 66.165ZM40.3371 66.24C40.3071 66.245 40.2771 66.252 40.2471 66.257C40.2761 66.252 40.3061 66.246 40.3371 66.24Z" fill="#5FA8D3"/>
<path d="M79.9972 91.363C79.4542 91.363 78.9122 91.284 78.3752 91.125C78.3572 91.12 78.3382 91.113 78.3212 91.106L41.3662 76.152C41.0652 76.03 40.9192 75.687 41.0422 75.385C41.1642 75.084 41.5072 74.938 41.8092 75.061L78.7352 90.004C79.5832 90.249 80.4112 90.248 81.2672 90.003L116.922 75.627C117.223 75.504 117.566 75.651 117.688 75.953C117.81 76.254 117.663 76.597 117.361 76.719L81.6792 91.107C81.6612 91.114 81.6432 91.121 81.6242 91.125C81.0832 91.284 80.5402 91.363 79.9972 91.363Z" fill="#5FA8D3"/>
<path d="M79.9972 87.261C79.4552 87.261 78.9122 87.182 78.3752 87.023C78.3572 87.018 78.3382 87.011 78.3212 87.005L41.3662 72.05C41.0652 71.928 40.9192 71.585 41.0422 71.284C41.1642 70.982 41.5072 70.838 41.8092 70.959L78.7352 85.902C79.5842 86.147 80.4132 86.147 81.2672 85.901L116.922 71.525C117.223 71.402 117.566 71.55 117.688 71.851C117.81 72.153 117.663 72.496 117.361 72.617L81.6792 87.005C81.6612 87.013 81.6432 87.019 81.6242 87.024C81.0832 87.182 80.5402 87.261 79.9972 87.261Z" fill="#5FA8D3"/>
<path d="M77.1161 30.931L48.0341 44.21C47.3021 44.545 47.3021 45.584 48.0341 45.918L77.1161 59.198C77.9951 59.599 79.0041 59.599 79.8831 59.198L108.965 45.918C109.696 45.584 109.696 44.545 108.965 44.21L79.8831 30.931C79.0051 30.53 77.9951 30.53 77.1161 30.931Z" fill="#5FA8D3"/>
<path d="M78.3441 74.916C65.5541 74.916 55.9102 70.563 55.9102 64.792V49.704L76.3882 59.055C77.0552 59.359 77.7662 59.514 78.5002 59.514C79.2342 59.514 79.9452 59.359 80.6122 59.055L100.779 49.846V64.792C100.779 70.563 91.1341 74.916 78.3441 74.916Z" fill="white"/>
<path d="M81.2892 60.538C80.4072 60.941 79.4682 61.145 78.5002 61.145C77.5312 61.145 76.5922 60.941 75.7112 60.538L57.5402 52.241V64.791C57.5402 69.481 66.8542 73.284 78.3432 73.284C89.8332 73.284 99.1472 69.481 99.1472 64.791V52.383L81.2892 60.538Z" fill="#5FA8D3"/>
<path d="M37.6252 24.792C35.1792 26.86 34.6272 30.229 34.6272 30.229C34.6272 30.229 38.0412 30.244 40.4872 28.176C42.9342 26.108 43.4862 22.739 43.4862 22.739C43.4862 22.739 40.0722 22.724 37.6252 24.792Z" fill="#5FA8D3"/>
<path d="M51.2702 104.902C53.2082 107.591 53.2142 110.68 53.1872 110.689C53.1922 110.728 48.9571 109.371 47.1461 106.417C45.3311 103.5 46.3781 100.587 46.3491 100.594C46.3591 100.623 49.3332 102.238 51.2702 104.902Z" fill="#5FA8D3"/>
<path d="M47.9312 113.835C51.7122 113.338 53.2202 110.55 53.2182 110.576C53.1742 110.588 49.1912 109.275 45.7082 109.553C42.1892 109.848 40.0492 111.946 40.0482 111.969C39.9982 111.978 44.1092 114.346 47.9312 113.835Z" fill="#5FA8D3"/>
<path d="M43.9651 101.36C45.2571 104.277 44.6411 107.253 44.6151 107.257C44.6171 107.297 40.9251 105.288 39.7751 102.13C38.6201 99.009 40.1671 96.367 40.1411 96.371C40.1461 96.401 42.6711 98.467 43.9651 101.36Z" fill="#5FA8D3"/>
<path d="M39.0682 109.42C42.7202 109.569 44.6732 107.129 44.6692 107.154C44.6282 107.159 41.1662 105.234 37.8062 104.917C34.4132 104.61 31.9652 106.275 31.9612 106.298C31.9132 106.299 35.3772 109.278 39.0682 109.42Z" fill="#5FA8D3"/>
<path d="M37.7192 96.706C38.4002 99.747 37.2372 102.517 37.2132 102.517C37.2102 102.556 34.0802 99.992 33.5572 96.736C33.0262 93.515 34.9972 91.219 34.9722 91.218C34.9732 91.248 37.0332 93.688 37.7192 96.706Z" fill="#5FA8D3"/>
<path d="M31.5092 103.668C34.9712 104.43 37.2892 102.401 37.2822 102.425C37.2442 102.424 34.3202 99.979 31.1442 99.096C27.9362 98.218 25.2612 99.409 25.2562 99.431C25.2132 99.426 28.0102 102.907 31.5092 103.668Z" fill="#5FA8D3"/>
<path d="M32.5702 91.123C32.6772 94.192 31.0412 96.674 31.0182 96.67C31.0112 96.708 28.4602 93.684 28.5282 90.429C28.5842 87.206 30.9022 85.314 30.8792 85.309C30.8762 85.34 32.4552 88.077 32.5702 91.123Z" fill="#5FA8D3"/>
<path d="M25.2992 96.804C28.5102 98.141 31.1132 96.572 31.1032 96.594C31.0692 96.586 28.6972 93.715 25.7672 92.302C22.8072 90.891 19.9902 91.581 19.9812 91.601C19.9402 91.589 22.0532 95.462 25.2992 96.804Z" fill="#5FA8D3"/>
<path d="M28.5551 84.796C28.1261 87.804 26.0941 89.93 26.0741 89.923C26.0621 89.959 24.1101 86.573 24.7301 83.408C25.3361 80.273 27.9201 78.833 27.8991 78.825C27.8911 78.853 28.9721 81.808 28.5551 84.796Z" fill="#5FA8D3"/>
<path d="M20.4801 89.051C23.3771 90.915 26.1812 89.842 26.1702 89.863C26.1392 89.851 24.3361 86.642 21.7121 84.747C19.0621 82.848 16.1891 83.021 16.1771 83.04C16.1391 83.023 17.5491 87.178 20.4801 89.051Z" fill="#5FA8D3"/>
<path d="M25.7122 77.909C24.7862 80.776 22.4362 82.49 22.4182 82.48C22.4002 82.514 21.0652 78.862 22.2012 75.869C23.3182 72.903 26.0882 71.95 26.0682 71.938C26.0572 71.965 26.6242 75.062 25.7122 77.909Z" fill="#5FA8D3"/>
<path d="M17.0941 80.637C19.6141 82.973 22.5351 82.419 22.5211 82.438C22.4941 82.421 21.2741 78.969 19.0221 76.643C16.7461 74.31 13.9021 73.966 13.8881 73.982C13.8551 73.96 14.5431 78.286 17.0941 80.637Z" fill="#5FA8D3"/>
<path d="M24.0801 70.647C22.6951 73.299 20.1091 74.559 20.0931 74.547C20.0711 74.578 19.3721 70.756 20.9831 68.012C22.5711 65.292 25.4431 64.844 25.4261 64.83C25.4081 64.854 25.4471 68.012 24.0801 70.647Z" fill="#5FA8D3"/>
<path d="M15.1882 71.787C17.2672 74.532 20.2191 74.508 20.2021 74.525C20.1801 74.504 19.5581 70.899 17.7411 68.204C15.9021 65.499 13.1782 64.647 13.1612 64.662C13.1322 64.634 13.0812 69.023 15.1882 71.787Z" fill="#5FA8D3"/>
<path d="M23.6972 63.197C21.8952 65.568 19.1552 66.344 19.1402 66.33C19.1132 66.357 19.0692 62.463 21.1142 60.034C23.1332 57.624 26.0222 57.693 26.0082 57.677C25.9852 57.699 25.4762 60.84 23.6972 63.197Z" fill="#5FA8D3"/>
<path d="M14.8031 62.728C16.3741 65.811 19.2701 66.315 19.2501 66.328C19.2301 66.304 19.2271 62.638 17.9101 59.644C16.5741 56.635 14.0591 55.301 14.0391 55.313C14.0141 55.281 13.2051 59.622 14.8031 62.728Z" fill="#5FA8D3"/>
<path d="M24.6012 55.746C22.4242 57.779 19.6102 58.055 19.5992 58.038C19.5672 58.062 20.1952 54.193 22.6342 52.138C25.0432 50.098 27.8642 50.679 27.8512 50.66C27.8242 50.679 26.7522 53.724 24.6012 55.746Z" fill="#5FA8D3"/>
<path d="M15.9822 53.687C16.9792 57.029 19.7292 58.046 19.7062 58.056C19.6912 58.029 20.3182 54.394 19.5682 51.176C18.8012 47.941 16.5892 46.161 16.5652 46.17C16.5452 46.136 14.9612 50.319 15.9822 53.687Z" fill="#5FA8D3"/>
<path d="M26.8302 48.481C24.3202 50.126 21.5212 49.897 21.5112 49.879C21.4732 49.898 22.7952 46.152 25.5842 44.523C28.3402 42.905 31.0042 43.979 30.9942 43.959C30.9612 43.973 29.3112 46.843 26.8302 48.481Z" fill="#5FA8D3"/>
<path d="M18.7702 44.894C19.1272 48.408 21.6392 49.909 21.6132 49.916C21.6032 49.888 22.8772 46.374 22.7612 43.019C22.6302 39.643 20.8132 37.467 20.7882 37.472C20.7712 37.435 18.3932 41.35 18.7702 44.894Z" fill="#5FA8D3"/>
<path d="M30.4241 41.591C27.6251 42.806 24.9261 42.081 24.9181 42.062C24.8761 42.075 26.9081 38.55 30.0041 37.391C33.0631 36.238 35.4801 37.776 35.4741 37.755C35.4361 37.764 33.1901 40.379 30.4241 41.591Z" fill="#5FA8D3"/>
<path d="M23.2122 36.577C22.8582 40.168 25.0402 42.113 25.0122 42.116C25.0042 42.087 26.9432 38.787 27.5292 35.385C28.1032 31.963 26.7782 29.452 26.7502 29.453C26.7362 29.414 23.5462 32.952 23.2122 36.577Z" fill="#5FA8D3"/>
<path d="M35.4202 35.264C32.3762 36.014 29.8662 34.814 29.8612 34.795C29.8142 34.801 32.5742 31.596 35.9352 30.942C39.2532 30.29 41.3332 32.249 41.3272 32.228C41.2842 32.231 38.4272 34.511 35.4202 35.264Z" fill="#5FA8D3"/>
<path d="M29.3502 28.965C28.2162 32.532 29.9742 34.866 29.9422 34.865C29.9392 34.835 32.5562 31.84 33.9152 28.494C35.2632 25.125 34.5262 22.354 34.4952 22.352C34.4872 22.312 30.4672 25.364 29.3502 28.965Z" fill="#5FA8D3"/>
<path d="M65.1912 112.088L65.1562 111.425C59.6632 111.715 54.2292 110.9 49.0062 109.003C43.9152 107.154 39.2432 104.363 35.1182 100.706C26.5592 93.117 21.2531 82.546 20.1761 70.942C19.2951 61.44 20.2462 53.037 23.0032 45.968C25.9642 38.377 30.9482 32.537 37.8172 28.61L37.4872 28.033C30.4832 32.037 25.4022 37.99 22.3852 45.726C19.5902 52.893 18.6252 61.397 19.5162 71.003C20.6082 82.776 25.9932 93.501 34.6792 101.202C38.8662 104.915 43.6101 107.75 48.7801 109.626C54.0881 111.555 59.6092 112.383 65.1912 112.088Z" fill="#5FA8D3"/>
<path d="M119.374 24.792C121.82 26.86 122.373 30.229 122.373 30.229C122.373 30.229 118.959 30.244 116.513 28.176C114.066 26.108 113.514 22.739 113.514 22.739C113.514 22.739 116.928 22.724 119.374 24.792Z" fill="#5FA8D3"/>
<path d="M105.73 104.902C103.792 107.591 103.786 110.68 103.813 110.689C103.808 110.728 108.043 109.371 109.854 106.417C111.669 103.5 110.622 100.587 110.651 100.594C110.641 100.623 107.666 102.238 105.73 104.902Z" fill="#5FA8D3"/>
<path d="M109.068 113.835C105.287 113.338 103.779 110.55 103.781 110.576C103.825 110.588 107.807 109.275 111.291 109.553C114.81 109.848 116.95 111.946 116.951 111.969C117.002 111.978 112.891 114.346 109.068 113.835Z" fill="#5FA8D3"/>
<path d="M113.034 101.36C111.742 104.277 112.358 107.253 112.384 107.257C112.382 107.297 116.074 105.288 117.224 102.13C118.379 99.009 116.832 96.367 116.858 96.371C116.853 96.401 114.327 98.467 113.034 101.36Z" fill="#5FA8D3"/>
<path d="M117.932 109.42C114.28 109.569 112.327 107.129 112.331 107.154C112.372 107.159 115.834 105.234 119.194 104.917C122.587 104.61 125.035 106.275 125.039 106.298C125.086 106.299 121.622 109.278 117.932 109.42Z" fill="#5FA8D3"/>
<path d="M119.28 96.706C118.599 99.747 119.762 102.517 119.786 102.517C119.789 102.556 122.919 99.992 123.442 96.736C123.973 93.515 122.002 91.219 122.026 91.218C122.027 91.248 119.966 93.688 119.28 96.706Z" fill="#5FA8D3"/>
<path d="M125.49 103.668C122.028 104.43 119.71 102.401 119.716 102.425C119.754 102.424 122.678 99.979 125.854 99.096C129.062 98.218 131.736 99.409 131.742 99.431C131.786 99.426 128.989 102.907 125.49 103.668Z" fill="#5FA8D3"/>
<path d="M124.429 91.123C124.322 94.192 125.958 96.674 125.981 96.67C125.988 96.708 128.539 93.684 128.471 90.429C128.415 87.206 126.097 85.314 126.12 85.309C126.124 85.34 124.544 88.077 124.429 91.123Z" fill="#5FA8D3"/>
<path d="M131.701 96.804C128.49 98.141 125.887 96.572 125.897 96.594C125.931 96.586 128.303 93.715 131.233 92.302C134.192 90.891 137.01 91.581 137.019 91.601C137.059 91.589 134.947 95.462 131.701 96.804Z" fill="#5FA8D3"/>
<path d="M128.444 84.796C128.873 87.804 130.905 89.93 130.925 89.923C130.937 89.959 132.889 86.573 132.269 83.408C131.663 80.273 129.079 78.833 129.1 78.825C129.108 78.853 128.027 81.808 128.444 84.796Z" fill="#5FA8D3"/>
<path d="M136.52 89.051C133.623 90.915 130.819 89.842 130.83 89.863C130.861 89.851 132.664 86.642 135.288 84.747C137.938 82.848 140.812 83.021 140.823 83.04C140.859 83.023 139.451 87.178 136.52 89.051Z" fill="#5FA8D3"/>
<path d="M131.287 77.909C132.213 80.776 134.563 82.49 134.581 82.48C134.599 82.514 135.934 78.862 134.798 75.869C133.682 72.903 130.912 71.95 130.931 71.938C130.943 71.965 130.375 75.062 131.287 77.909Z" fill="#5FA8D3"/>
<path d="M139.905 80.637C137.385 82.973 134.463 82.419 134.478 82.438C134.505 82.421 135.725 78.969 137.977 76.643C140.253 74.31 143.097 73.966 143.111 73.982C143.144 73.96 142.455 78.286 139.905 80.637Z" fill="#5FA8D3"/>
<path d="M132.919 70.647C134.304 73.299 136.89 74.559 136.906 74.547C136.928 74.578 137.627 70.756 136.016 68.012C134.428 65.292 131.556 64.844 131.573 64.83C131.591 64.854 131.553 68.012 132.919 70.647Z" fill="#5FA8D3"/>
<path d="M141.812 71.787C139.733 74.532 136.781 74.508 136.798 74.525C136.821 74.504 137.442 70.899 139.258 68.204C141.098 65.499 143.822 64.647 143.839 64.662C143.867 64.634 143.919 69.023 141.812 71.787Z" fill="#5FA8D3"/>
<path d="M133.303 63.197C135.105 65.568 137.846 66.344 137.86 66.33C137.887 66.357 137.931 62.463 135.886 60.034C133.867 57.624 130.978 57.693 130.992 57.677C131.014 57.699 131.523 60.84 133.303 63.197Z" fill="#5FA8D3"/>
<path d="M142.197 62.728C140.626 65.811 137.73 66.315 137.75 66.328C137.77 66.304 137.773 62.638 139.09 59.644C140.426 56.635 142.941 55.301 142.961 55.313C142.986 55.281 143.795 59.622 142.197 62.728Z" fill="#5FA8D3"/>
<path d="M132.399 55.746C134.576 57.779 137.39 58.055 137.4 58.038C137.432 58.062 136.804 54.193 134.365 52.138C131.956 50.098 129.135 50.679 129.148 50.66C129.175 50.679 130.247 53.724 132.399 55.746Z" fill="#5FA8D3"/>
<path d="M141.017 53.687C140.02 57.029 137.27 58.046 137.293 58.056C137.308 58.029 136.681 54.394 137.431 51.176C138.198 47.941 140.41 46.161 140.434 46.17C140.454 46.136 142.039 50.319 141.017 53.687Z" fill="#5FA8D3"/>
<path d="M130.169 48.481C132.679 50.126 135.478 49.897 135.488 49.879C135.526 49.898 134.204 46.152 131.415 44.523C128.659 42.905 125.995 43.979 126.005 43.959C126.038 43.973 127.688 46.843 130.169 48.481Z" fill="#5FA8D3"/>
<path d="M138.228 44.894C137.872 48.408 135.36 49.909 135.386 49.916C135.396 49.888 134.122 46.374 134.238 43.019C134.369 39.643 136.186 37.467 136.211 37.472C136.228 37.435 138.607 41.35 138.228 44.894Z" fill="#5FA8D3"/>
<path d="M126.576 41.591C129.375 42.806 132.074 42.081 132.082 42.062C132.124 42.075 130.093 38.55 126.996 37.391C123.937 36.238 121.519 37.776 121.526 37.755C121.564 37.764 123.81 40.379 126.576 41.591Z" fill="#5FA8D3"/>
<path d="M133.788 36.577C134.142 40.168 131.959 42.113 131.988 42.116C131.995 42.087 130.057 38.787 129.471 35.385C128.897 31.963 130.222 29.452 130.25 29.453C130.263 29.414 133.453 32.952 133.788 36.577Z" fill="#5FA8D3"/>
<path d="M121.579 35.264C124.623 36.014 127.132 34.814 127.138 34.795C127.185 34.801 124.425 31.596 121.064 30.942C117.746 30.29 115.666 32.249 115.672 32.228C115.715 32.231 118.573 34.511 121.579 35.264Z" fill="#5FA8D3"/>
<path d="M127.65 28.965C128.783 32.532 127.026 34.866 127.058 34.865C127.061 34.835 124.444 31.84 123.085 28.494C121.737 25.125 122.473 22.354 122.505 22.352C122.513 22.312 126.533 25.364 127.65 28.965Z" fill="#5FA8D3"/>
<path d="M91.8082 112.088L91.8432 111.425C97.3362 111.715 102.769 110.9 107.993 109.003C113.084 107.154 117.756 104.363 121.881 100.706C130.44 93.117 135.746 82.546 136.823 70.942C137.704 61.44 136.753 53.037 133.995 45.968C131.035 38.377 126.05 32.537 119.181 28.61L119.511 28.033C126.515 32.037 131.596 37.99 134.613 45.726C137.408 52.893 138.373 61.397 137.482 71.003C136.39 82.776 131.005 93.501 122.319 101.202C118.132 104.915 113.388 107.75 108.218 109.626C102.912 111.555 97.3902 112.383 91.8082 112.088Z" fill="#5FA8D3"/>
<path d="M79.2191 0L82.0412 5.72L88.3552 6.638L83.7872 11.09L84.8652 17.378L79.2191 14.409L73.5712 17.378L74.6501 11.09L70.0822 6.638L76.3952 5.72L79.2191 0Z" fill="#5FA8D3"/>
<path d="M57.4742 10.649L59.5592 14.875L64.2232 15.552L60.8482 18.842L61.6442 23.487L57.4742 21.294L53.3032 23.487L54.1002 18.842L50.7252 15.552L55.3882 14.875L57.4742 10.649Z" fill="#5FA8D3"/>
<path d="M100.963 10.649L103.049 14.875L107.712 15.552L104.337 18.842L105.134 23.487L100.963 21.294L96.7921 23.487L97.5892 18.842L94.2142 15.552L98.8772 14.875L100.963 10.649Z" fill="#5FA8D3"/>
<path d="M68.1463 109.833V104.386H71.4336V104.971H68.8059V106.811H71.2634V107.396H68.8059V109.248H71.4762V109.833H68.1463ZM75.6013 105.747C75.5694 105.478 75.44 105.269 75.213 105.12C74.986 104.971 74.7077 104.896 74.3779 104.896C74.1367 104.896 73.9257 104.935 73.7449 105.013C73.5658 105.091 73.4257 105.199 73.3246 105.335C73.2254 105.472 73.1757 105.627 73.1757 105.801C73.1757 105.946 73.2103 106.071 73.2794 106.176C73.3504 106.279 73.4408 106.365 73.5507 106.434C73.6606 106.501 73.7759 106.557 73.8965 106.601C74.017 106.644 74.1279 106.678 74.2289 106.705L74.7821 106.854C74.924 106.891 75.0818 106.943 75.2556 107.008C75.4311 107.074 75.5987 107.163 75.7582 107.277C75.9196 107.388 76.0526 107.532 76.1572 107.708C76.2618 107.883 76.3141 108.099 76.3141 108.354C76.3141 108.648 76.237 108.914 76.0827 109.152C75.9302 109.389 75.7068 109.578 75.4125 109.718C75.1199 109.858 74.7644 109.928 74.346 109.928C73.9559 109.928 73.6181 109.866 73.3326 109.74C73.0489 109.614 72.8255 109.438 72.6624 109.213C72.501 108.988 72.4097 108.726 72.3884 108.428H73.0693C73.087 108.634 73.1562 108.804 73.2768 108.939C73.3991 109.072 73.5534 109.171 73.7396 109.237C73.9275 109.301 74.1296 109.333 74.346 109.333C74.5977 109.333 74.8238 109.292 75.0242 109.21C75.2245 109.127 75.3832 109.012 75.5002 108.865C75.6173 108.716 75.6758 108.542 75.6758 108.343C75.6758 108.162 75.6253 108.015 75.5242 107.902C75.4231 107.788 75.2901 107.696 75.1252 107.625C74.9603 107.554 74.7821 107.492 74.5906 107.439L73.9204 107.248C73.4949 107.125 73.158 106.951 72.9097 106.724C72.6615 106.497 72.5374 106.2 72.5374 105.833C72.5374 105.528 72.6198 105.262 72.7847 105.035C72.9514 104.806 73.1748 104.629 73.455 104.503C73.7369 104.375 74.0516 104.311 74.3991 104.311C74.7502 104.311 75.0623 104.374 75.3353 104.5C75.6084 104.624 75.8247 104.794 75.9843 105.011C76.1457 105.227 76.2308 105.473 76.2396 105.747H75.6013ZM77.1007 104.971V104.386H81.1859V104.971H79.4731V109.833H78.8135V104.971H77.1007ZM83.8848 109.833H82.2039V104.386H83.9593C84.4877 104.386 84.9398 104.495 85.3157 104.713C85.6916 104.929 85.9797 105.24 86.1801 105.646C86.3805 106.051 86.4807 106.535 86.4807 107.099C86.4807 107.666 86.3796 108.154 86.1774 108.564C85.9753 108.972 85.681 109.286 85.2944 109.506C84.9079 109.724 84.438 109.833 83.8848 109.833ZM82.8635 109.248H83.8423C84.2926 109.248 84.6659 109.161 84.962 108.987C85.2581 108.813 85.4788 108.566 85.6242 108.245C85.7696 107.924 85.8423 107.542 85.8423 107.099C85.8423 106.659 85.7705 106.28 85.6269 105.963C85.4833 105.644 85.2687 105.399 84.9833 105.229C84.6978 105.057 84.3423 104.971 83.9167 104.971H82.8635V109.248ZM87.6157 109.875C87.4844 109.875 87.3719 109.828 87.2779 109.734C87.1839 109.64 87.1369 109.528 87.1369 109.397C87.1369 109.265 87.1839 109.153 87.2779 109.059C87.3719 108.965 87.4844 108.918 87.6157 108.918C87.7469 108.918 87.8595 108.965 87.9534 109.059C88.0474 109.153 88.0944 109.265 88.0944 109.397C88.0944 109.483 88.0722 109.563 88.0279 109.636C87.9854 109.709 87.9277 109.767 87.855 109.811C87.7841 109.854 87.7043 109.875 87.6157 109.875Z" fill="#5FA8D3"/>
<path d="M70.4317 116.623V116.184L72.0813 114.378C72.2748 114.166 72.4343 113.983 72.5595 113.826C72.6848 113.669 72.7775 113.521 72.8377 113.382C72.8995 113.242 72.9304 113.096 72.9304 112.943C72.9304 112.767 72.8881 112.615 72.8035 112.487C72.7206 112.358 72.6067 112.259 72.4619 112.189C72.3171 112.119 72.1545 112.084 71.9739 112.084C71.7819 112.084 71.6144 112.124 71.4712 112.204C71.3297 112.282 71.2199 112.392 71.1418 112.533C71.0654 112.675 71.0271 112.841 71.0271 113.031H70.4513C70.4513 112.738 70.5188 112.481 70.6538 112.26C70.7888 112.039 70.9726 111.866 71.2053 111.743C71.4395 111.619 71.7022 111.557 71.9934 111.557C72.2862 111.557 72.5457 111.619 72.7718 111.743C72.9979 111.866 73.1753 112.033 73.3038 112.243C73.4323 112.453 73.4965 112.686 73.4965 112.943C73.4965 113.127 73.4632 113.307 73.3965 113.482C73.3314 113.656 73.2175 113.851 73.0549 114.066C72.8938 114.279 72.6701 114.539 72.3838 114.846L71.2614 116.047V116.086H73.5844V116.623H70.4317ZM76.2222 116.691C75.8545 116.691 75.5414 116.591 75.2827 116.391C75.0241 116.189 74.8264 115.897 74.6898 115.515C74.5531 115.131 74.4848 114.667 74.4848 114.124C74.4848 113.584 74.5531 113.123 74.6898 112.741C74.828 112.357 75.0265 112.064 75.2852 111.862C75.5454 111.659 75.8578 111.557 76.2222 111.557C76.5866 111.557 76.8981 111.659 77.1567 111.862C77.417 112.064 77.6155 112.357 77.7521 112.741C77.8904 113.123 77.9595 113.584 77.9595 114.124C77.9595 114.667 77.8912 115.131 77.7546 115.515C77.6179 115.897 77.4203 116.189 77.1616 116.391C76.903 116.591 76.5898 116.691 76.2222 116.691ZM76.2222 116.154C76.5866 116.154 76.8696 115.979 77.0713 115.627C77.273 115.276 77.3739 114.775 77.3739 114.124C77.3739 113.691 77.3275 113.323 77.2348 113.019C77.1437 112.715 77.0119 112.483 76.8395 112.323C76.6687 112.164 76.4629 112.084 76.2222 112.084C75.861 112.084 75.5788 112.262 75.3754 112.619C75.1721 112.973 75.0704 113.475 75.0704 114.124C75.0704 114.557 75.116 114.924 75.2071 115.227C75.2982 115.53 75.4291 115.76 75.5999 115.918C75.7724 116.075 75.9798 116.154 76.2222 116.154ZM78.8868 116.623V116.184L80.5363 114.378C80.7299 114.166 80.8893 113.983 81.0146 113.826C81.1398 113.669 81.2326 113.521 81.2927 113.382C81.3546 113.242 81.3855 113.096 81.3855 112.943C81.3855 112.767 81.3432 112.615 81.2586 112.487C81.1756 112.358 81.0617 112.259 80.917 112.189C80.7722 112.119 80.6095 112.084 80.4289 112.084C80.237 112.084 80.0694 112.124 79.9263 112.204C79.7847 112.282 79.6749 112.392 79.5969 112.533C79.5204 112.675 79.4822 112.841 79.4822 113.031H78.9063C78.9063 112.738 78.9738 112.481 79.1088 112.26C79.2439 112.039 79.4277 111.866 79.6603 111.743C79.8946 111.619 80.1573 111.557 80.4485 111.557C80.7413 111.557 81.0007 111.619 81.2269 111.743C81.453 111.866 81.6303 112.033 81.7588 112.243C81.8873 112.453 81.9516 112.686 81.9516 112.943C81.9516 113.127 81.9182 113.307 81.8515 113.482C81.7865 113.656 81.6726 113.851 81.5099 114.066C81.3489 114.279 81.1252 114.539 80.8389 114.846L79.7164 116.047V116.086H82.0394V116.623H78.8868ZM84.7358 116.691C84.4137 116.691 84.1265 116.636 83.8744 116.525C83.6239 116.415 83.4246 116.261 83.2766 116.064C83.1302 115.866 83.0505 115.635 83.0374 115.373H83.6523C83.6654 115.535 83.7207 115.674 83.8183 115.791C83.9159 115.906 84.0436 115.996 84.2014 116.059C84.3592 116.123 84.534 116.154 84.726 116.154C84.9407 116.154 85.1311 116.117 85.297 116.042C85.4629 115.967 85.5931 115.863 85.6874 115.73C85.7818 115.596 85.8289 115.442 85.8289 115.266C85.8289 115.082 85.7834 114.92 85.6923 114.781C85.6012 114.639 85.4678 114.528 85.2921 114.449C85.1164 114.369 84.9017 114.329 84.6479 114.329H84.2477V113.792H84.6479C84.8464 113.792 85.0204 113.756 85.1701 113.685C85.3214 113.613 85.4393 113.512 85.5239 113.382C85.6101 113.252 85.6533 113.099 85.6533 112.924C85.6533 112.754 85.6158 112.607 85.541 112.482C85.4662 112.357 85.3604 112.259 85.2238 112.189C85.0888 112.119 84.9293 112.084 84.7455 112.084C84.5731 112.084 84.4104 112.116 84.2575 112.179C84.1062 112.241 83.9826 112.331 83.8866 112.45C83.7906 112.567 83.7386 112.709 83.7304 112.875H83.1448C83.1546 112.613 83.2335 112.383 83.3815 112.187C83.5295 111.988 83.7231 111.834 83.9622 111.723C84.203 111.612 84.4674 111.557 84.7553 111.557C85.0644 111.557 85.3295 111.62 85.5508 111.745C85.772 111.869 85.942 112.032 86.0608 112.235C86.1795 112.439 86.2389 112.658 86.2389 112.894C86.2389 113.176 86.1649 113.416 86.0168 113.614C85.8704 113.813 85.6711 113.95 85.419 114.027V114.066C85.7346 114.118 85.981 114.252 86.1584 114.468C86.3357 114.683 86.4243 114.949 86.4243 115.266C86.4243 115.538 86.3503 115.782 86.2023 115.998C86.0559 116.213 85.8558 116.382 85.602 116.506C85.3482 116.629 85.0595 116.691 84.7358 116.691Z" fill="#5FA8D3"/>
<path d="M22.7719 130.691V132.895H14.6073V138.58H21.9704V140.734H14.6073V146.419H22.7719V148.623H12.3032V130.691H22.7719ZM30.4971 146.92C31.6325 146.92 32.5591 146.511 33.2771 145.693C34.0284 144.874 34.4041 143.806 34.4041 142.487C34.4041 141.201 34.0284 140.141 33.2771 139.306C32.5424 138.471 31.6158 138.054 30.4971 138.054C29.3952 138.054 28.4685 138.471 27.7172 139.306C26.9658 140.141 26.5902 141.201 26.5902 142.487C26.5902 143.789 26.9658 144.849 27.7172 145.668C28.4685 146.502 29.3952 146.92 30.4971 146.92ZM30.1215 149.024C28.5186 149.024 27.1412 148.389 25.9891 147.12C24.8538 145.835 24.2861 144.29 24.2861 142.487C24.2861 140.684 24.8538 139.139 25.9891 137.854C27.1412 136.585 28.5186 135.95 30.1215 135.95C31.0231 135.95 31.8412 136.142 32.5758 136.526C33.3272 136.91 33.9032 137.42 34.3039 138.054H34.4041L34.3039 136.351V130.691H36.608V148.623H34.4041V146.92H34.3039C33.9032 147.554 33.3272 148.063 32.5758 148.447C31.8412 148.832 31.0231 149.024 30.1215 149.024ZM50.1865 148.623H47.9826V146.92H47.8824C47.5318 147.521 46.9891 148.022 46.2545 148.422C45.5365 148.823 44.7852 149.024 44.0005 149.024C42.4978 149.024 41.3374 148.598 40.5193 147.746C39.7179 146.878 39.3171 145.651 39.3171 144.065V136.351H41.6212V143.914C41.6713 145.918 42.6815 146.92 44.6516 146.92C45.5699 146.92 46.338 146.552 46.9557 145.818C47.5735 145.066 47.8824 144.173 47.8824 143.138V136.351H50.1865V148.623ZM61.832 149.024C59.1773 149.024 56.9567 148.13 55.1702 146.344C53.4004 144.557 52.5154 142.328 52.5154 139.657C52.5154 136.985 53.4004 134.765 55.1702 132.995C56.94 131.192 59.1606 130.29 61.832 130.29C64.5369 130.29 66.7324 131.267 68.4188 133.22L66.7658 134.823C65.4802 133.27 63.8356 132.494 61.832 132.494C59.8452 132.494 58.1839 133.162 56.8482 134.498C55.5291 135.817 54.8696 137.536 54.8696 139.657C54.8696 141.777 55.5291 143.497 56.8482 144.816C58.1839 146.152 59.8452 146.82 61.832 146.82C63.9191 146.82 65.7306 145.943 67.2667 144.19L68.9447 145.818C68.0932 146.836 67.0497 147.629 65.8141 148.197C64.5786 148.748 63.2512 149.024 61.832 149.024ZM70.0463 142.487C70.0463 140.6 70.639 139.039 71.8244 137.804C73.0266 136.568 74.5376 135.95 76.3575 135.95C78.1774 135.95 79.6801 136.568 80.8655 137.804C82.0677 139.039 82.6688 140.6 82.6688 142.487C82.6688 144.39 82.0677 145.951 80.8655 147.17C79.6801 148.406 78.1774 149.024 76.3575 149.024C74.5376 149.024 73.0266 148.406 71.8244 147.17C70.639 145.935 70.0463 144.374 70.0463 142.487ZM72.3504 142.487C72.3504 143.806 72.7344 144.874 73.5024 145.693C74.2705 146.511 75.2222 146.92 76.3575 146.92C77.4929 146.92 78.4446 146.511 79.2126 145.693C79.9806 144.874 80.3646 143.806 80.3646 142.487C80.3646 141.185 79.9806 140.124 79.2126 139.306C78.4279 138.471 77.4762 138.054 76.3575 138.054C75.2389 138.054 74.2872 138.471 73.5024 139.306C72.7344 140.124 72.3504 141.185 72.3504 142.487ZM84.5172 136.351H86.7211V138.054H86.8213C87.1719 137.453 87.7062 136.952 88.4241 136.551C89.1588 136.151 89.9184 135.95 90.7032 135.95C92.2059 135.95 93.3579 136.384 94.1593 137.253C94.9775 138.104 95.3865 139.323 95.3865 140.909V148.623H93.0824V141.059C93.0323 139.056 92.0222 138.054 90.052 138.054C89.1337 138.054 88.3657 138.43 87.7479 139.181C87.1301 139.916 86.8213 140.801 86.8213 141.836V148.623H84.5172V136.351ZM98.0911 136.351H100.295V138.054H100.395C100.746 137.453 101.28 136.952 101.998 136.551C102.733 136.151 103.492 135.95 104.277 135.95C105.78 135.95 106.932 136.384 107.733 137.253C108.551 138.104 108.96 139.323 108.96 140.909V148.623H106.656V141.059C106.606 139.056 105.596 138.054 103.626 138.054C102.708 138.054 101.94 138.43 101.322 139.181C100.704 139.916 100.395 140.801 100.395 141.836V148.623H98.0911V136.351ZM117.175 149.024C115.372 149.024 113.886 148.406 112.717 147.17C111.548 145.935 110.964 144.374 110.964 142.487C110.964 140.617 111.532 139.064 112.667 137.829C113.802 136.576 115.255 135.95 117.025 135.95C118.845 135.95 120.289 136.543 121.357 137.728C122.443 138.897 122.985 140.542 122.985 142.662L122.96 142.913H113.318C113.351 144.115 113.752 145.083 114.52 145.818C115.288 146.552 116.207 146.92 117.275 146.92C118.744 146.92 119.896 146.185 120.731 144.716L122.785 145.718C122.234 146.753 121.466 147.563 120.481 148.147C119.512 148.731 118.41 149.024 117.175 149.024ZM113.493 141.009H120.531C120.464 140.158 120.113 139.456 119.479 138.905C118.861 138.338 118.026 138.054 116.975 138.054C116.106 138.054 115.355 138.321 114.721 138.855C114.103 139.39 113.694 140.108 113.493 141.009ZM130.825 149.024C129.005 149.024 127.494 148.406 126.292 147.17C125.106 145.901 124.513 144.34 124.513 142.487C124.513 140.6 125.106 139.039 126.292 137.804C127.494 136.568 129.005 135.95 130.825 135.95C132.077 135.95 133.17 136.267 134.105 136.902C135.04 137.52 135.742 138.38 136.209 139.482L134.105 140.358C133.454 138.822 132.311 138.054 130.674 138.054C129.622 138.054 128.713 138.48 127.944 139.331C127.193 140.183 126.817 141.235 126.817 142.487C126.817 143.739 127.193 144.791 127.944 145.642C128.713 146.494 129.622 146.92 130.674 146.92C132.361 146.92 133.546 146.152 134.231 144.616L136.284 145.492C135.834 146.594 135.124 147.462 134.156 148.097C133.204 148.715 132.094 149.024 130.825 149.024ZM143.036 148.823C142.034 148.823 141.199 148.514 140.531 147.897C139.88 147.279 139.546 146.419 139.53 145.317V138.455H137.376V136.351H139.53V132.594H141.834V136.351H144.839V138.455H141.834V144.566C141.834 145.384 141.992 145.943 142.31 146.244C142.627 146.527 142.986 146.669 143.386 146.669C143.57 146.669 143.745 146.653 143.912 146.619C144.096 146.569 144.263 146.511 144.413 146.444L145.14 148.498C144.538 148.715 143.837 148.823 143.036 148.823Z" fill="#5FA8D3"/>
</svg>
